<?xml version="1.0" encoding="utf-8"?>
<!-- Generator: Adobe Illustrator 24.2.3, SVG Export Plug-In . SVG Version: 6.00 Build 0)  -->
<svg version="1.1" id="Layer_1" xmlns="http://www.w3.org/2000/svg" xmlns:xlink="http://www.w3.org/1999/xlink" x="0px" y="0px"
	 viewBox="0 0 174.08 76.77" style="enable-background:new 0 0 174.08 76.77;" xml:space="preserve">
<style type="text/css">
	.st0{fill:#00164E;}
	.st1{clip-path:url(#SVGID_2_);fill:#00164E;}
	.st2{clip-path:url(#SVGID_2_);fill-rule:evenodd;clip-rule:evenodd;fill:#00164E;}
</style>
<polygon class="st0" points="67.97,52.25 67.73,53.39 68.95,53.91 67.2,61.92 65.76,62.45 65.51,63.59 70.27,63.59 70.49,62.45 
	69.26,61.92 71,53.91 72.48,53.39 72.72,52.25 "/>
<g>
	<defs>
		<rect id="SVGID_1_" y="0" width="174.08" height="76.77"/>
	</defs>
	<clipPath id="SVGID_2_">
		<use xlink:href="#SVGID_1_"  style="overflow:visible;"/>
	</clipPath>
	<path class="st1" d="M72.14,63.61l1.89-8.64h1.61l-0.16,1.59h0.03c0.33-0.47,0.73-0.88,1.19-1.22c0.46-0.35,1.02-0.53,1.67-0.53
		c0.74,0,1.3,0.21,1.69,0.63c0.39,0.42,0.59,0.99,0.59,1.73c0,0.21-0.02,0.44-0.06,0.69c-0.04,0.25-0.08,0.49-0.12,0.72l-1.09,5.04
		h-2.07l1.11-5.2c0.1-0.4,0.15-0.73,0.15-0.99c0-0.64-0.31-0.97-0.94-0.97c-0.54,0-1.06,0.31-1.54,0.93
		C75.6,58,75.24,58.87,75,59.97l-0.8,3.64H72.14z"/>
	<path class="st1" d="M89.38,53.77c-0.31,0-0.56-0.07-0.75-0.21c-0.19-0.14-0.29-0.36-0.29-0.67c0-0.38,0.11-0.68,0.33-0.91
		c0.22-0.22,0.53-0.33,0.94-0.33c0.29,0,0.54,0.07,0.73,0.2c0.19,0.13,0.29,0.35,0.29,0.66c0,0.38-0.11,0.69-0.33,0.91
		C90.07,53.66,89.77,53.77,89.38,53.77 M86.09,63.59l1.87-8.61h2.03l-1.87,8.61H86.09z"/>
	<path class="st1" d="M93.48,63.75c-0.65,0-1.18-0.14-1.6-0.43c-0.41-0.29-0.62-0.8-0.62-1.53c0-0.14,0.01-0.29,0.03-0.45
		c0.02-0.16,0.04-0.34,0.09-0.52l0.94-4.34h-1.27l0.2-0.95l1.53-0.64l1.03-1.8h1.28l-0.41,1.88h2.21l-0.33,1.51h-2.21l-0.94,4.36
		c-0.02,0.11-0.04,0.21-0.07,0.32c-0.02,0.11-0.03,0.21-0.03,0.3c0,0.45,0.26,0.68,0.77,0.68c0.21,0,0.41-0.02,0.6-0.07
		c0.19-0.05,0.41-0.11,0.64-0.18v1.49c-0.21,0.09-0.47,0.18-0.8,0.25C94.19,63.71,93.85,63.75,93.48,63.75"/>
	<path class="st1" d="M102.1,63.59l-0.39-8.61h1.92l0.08,4.1c0,0.49,0,0.95-0.01,1.39c-0.01,0.44-0.03,0.86-0.06,1.28h0.06
		c0.08-0.25,0.17-0.54,0.29-0.85c0.12-0.31,0.24-0.61,0.36-0.89c0.12-0.28,0.21-0.49,0.28-0.63l2-4.4h2.22l0.1,4.31
		c0.01,0.37,0.01,0.77,0.01,1.2c-0.01,0.43-0.02,0.85-0.04,1.26h0.06c0.08-0.25,0.18-0.55,0.3-0.87c0.12-0.33,0.25-0.66,0.38-1
		c0.13-0.34,0.26-0.65,0.38-0.92l1.81-3.97h2.1l-4.15,8.61h-2.3l-0.11-4.26c-0.01-0.36-0.01-0.78,0-1.26
		c0.01-0.48,0.03-0.92,0.05-1.35h-0.1c-0.14,0.39-0.29,0.8-0.45,1.23c-0.16,0.43-0.33,0.83-0.51,1.22l-2.02,4.42H102.1z"/>
	<path class="st1" d="M116.82,53.77c-0.31,0-0.55-0.07-0.75-0.21c-0.19-0.14-0.29-0.36-0.29-0.67c0-0.38,0.11-0.68,0.33-0.91
		c0.22-0.22,0.53-0.33,0.94-0.33c0.29,0,0.54,0.07,0.73,0.2c0.19,0.13,0.29,0.35,0.29,0.66c0,0.38-0.11,0.69-0.33,0.91
		C117.52,53.66,117.21,53.77,116.82,53.77 M113.53,63.59l1.87-8.61h2.03l-1.87,8.61H113.53z"/>
	<path class="st1" d="M120.92,63.75c-0.65,0-1.18-0.14-1.6-0.43c-0.41-0.29-0.62-0.8-0.62-1.53c0-0.14,0.01-0.29,0.03-0.45
		c0.02-0.16,0.04-0.34,0.09-0.52l0.95-4.34h-1.27l0.19-0.95l1.53-0.64l1.03-1.8h1.28l-0.41,1.88h2.21l-0.33,1.51h-2.21l-0.94,4.36
		c-0.02,0.11-0.04,0.21-0.07,0.32c-0.02,0.11-0.03,0.21-0.03,0.3c0,0.45,0.26,0.68,0.77,0.68c0.21,0,0.41-0.02,0.6-0.07
		c0.19-0.05,0.41-0.11,0.64-0.18v1.49c-0.21,0.09-0.47,0.18-0.8,0.25C121.64,63.71,121.29,63.75,120.92,63.75"/>
	<path class="st1" d="M124.32,63.59l2.62-12.08h2.04l-0.55,2.5c-0.07,0.29-0.14,0.59-0.23,0.91c-0.09,0.32-0.17,0.61-0.25,0.86
		c-0.08,0.26-0.13,0.43-0.15,0.52h0.07c0.32-0.39,0.7-0.74,1.13-1.03c0.43-0.3,0.94-0.44,1.54-0.44c0.73,0,1.29,0.21,1.68,0.63
		c0.39,0.42,0.59,1.01,0.59,1.76c0,0.19-0.02,0.4-0.05,0.63c-0.03,0.23-0.08,0.47-0.13,0.72l-1.09,5.04h-2.03l1.12-5.16
		c0.04-0.2,0.07-0.38,0.1-0.54c0.02-0.16,0.03-0.3,0.03-0.43c0-0.68-0.32-1.02-0.96-1.02c-0.55,0-1.07,0.31-1.56,0.94
		c-0.48,0.62-0.84,1.49-1.08,2.59l-0.78,3.62H124.32z"/>
	<path class="st1" d="M137.75,67.41c-0.27,0-0.49-0.01-0.67-0.04c-0.17-0.03-0.33-0.06-0.47-0.1v-1.59
		c0.14,0.03,0.29,0.06,0.45,0.08c0.16,0.02,0.33,0.03,0.51,0.03c0.48,0,0.88-0.14,1.2-0.42c0.32-0.28,0.61-0.66,0.87-1.12l0.36-0.6
		l-1.32-8.66h2l0.49,4.08c0.05,0.42,0.09,0.89,0.11,1.38c0.02,0.5,0.03,0.91,0.03,1.22h0.05c0.11-0.26,0.26-0.61,0.44-1.06
		c0.18-0.45,0.38-0.88,0.59-1.28l2.25-4.35h2.2l-5.45,9.93c-0.47,0.84-0.99,1.46-1.58,1.88C139.22,67.2,138.53,67.41,137.75,67.41"
		/>
	<path class="st1" d="M150.24,62.11c0.48,0,0.89-0.18,1.25-0.53c0.35-0.35,0.63-0.82,0.82-1.42c0.2-0.6,0.29-1.27,0.29-2.01
		c0-0.46-0.1-0.85-0.3-1.19c-0.2-0.34-0.56-0.51-1.06-0.51c-0.4,0-0.76,0.12-1.06,0.35c-0.3,0.23-0.56,0.55-0.76,0.94
		c-0.21,0.39-0.36,0.82-0.46,1.3c-0.1,0.47-0.15,0.94-0.15,1.4C148.79,61.56,149.27,62.11,150.24,62.11 M150.09,63.73
		c-1,0-1.81-0.29-2.42-0.88c-0.61-0.59-0.92-1.4-0.92-2.42c0-0.72,0.1-1.41,0.28-2.08c0.19-0.67,0.48-1.26,0.86-1.8
		c0.38-0.53,0.86-0.95,1.43-1.25c0.57-0.31,1.24-0.46,1.99-0.46c1.03,0,1.84,0.3,2.44,0.9c0.6,0.6,0.89,1.43,0.89,2.49
		c0,0.7-0.09,1.38-0.28,2.03c-0.18,0.66-0.47,1.25-0.85,1.77c-0.38,0.52-0.85,0.94-1.42,1.25
		C151.55,63.58,150.87,63.73,150.09,63.73"/>
	<path class="st1" d="M158.51,63.75c-0.73,0-1.28-0.21-1.66-0.62c-0.38-0.41-0.57-0.99-0.57-1.73c0-0.21,0.02-0.45,0.06-0.72
		c0.04-0.27,0.08-0.54,0.14-0.82l1.06-4.88h2.04l-1.12,5.18c-0.09,0.4-0.13,0.73-0.13,0.97c0,0.67,0.32,1,0.96,1
		c0.55,0,1.07-0.31,1.55-0.94c0.48-0.62,0.84-1.49,1.08-2.59l0.8-3.62h2.02l-1.87,8.61h-1.58l0.16-1.59h-0.08
		c-0.33,0.47-0.72,0.87-1.17,1.22C159.73,63.58,159.17,63.75,158.51,63.75"/>
	<path class="st2" d="M32.76,9.36c-12.92,0-23.4,10.47-23.4,23.4c0,12.93,10.48,23.4,23.4,23.4c12.92,0,23.4-10.48,23.4-23.4
		C56.15,19.83,45.68,9.36,32.76,9.36 M32.76,53.15c-11.27,0-20.4-9.13-20.4-20.4c0-11.26,9.14-20.39,20.4-20.39
		c11.26,0,20.4,9.13,20.4,20.39C53.15,44.02,44.02,53.15,32.76,53.15 M44.39,42.28H20.15c-0.51-0.81-0.96-1.59-1.34-2.35
		c-0.92-2.03-1.43-4.3-1.43-6.69c0-4.69,1.98-8.91,5.12-11.84c0.05-0.04,0.1-0.07,0.17-0.07c0.14,0,0.26,0.11,0.26,0.24
		c0,0.03,0,0.06-0.02,0.09c-0.65,1.18-1.64,3.22-1.64,6.03c0,2.25,1.43,5.63,3.31,6.81c0,0-1.22-4.9,1.21-8.77
		c1.89-3.01,5.71-5.55,4.52-10.17c0,0-0.01-0.03-0.01-0.06c0-0.13,0.12-0.24,0.26-0.24c0.08,0,0.12,0.02,0.12,0.02
		c1.21,0.59,5.04,4.01,3.73,8.4c-0.82,2.74-3.49,4.9-1.01,8.51c0.74-6.24,7.05-5.69,5.33-13.32c0,0-0.01-0.03-0.01-0.04
		c0-0.14,0.12-0.24,0.26-0.24c0.08,0,0.14,0.04,0.14,0.04c1.71,1.08,7.57,5.04,3.82,10.87C39.04,35.58,42.28,39.96,44.39,42.28
		 M21.75,44.34h22.44c-1.14,1.21-2.46,2.24-3.92,3.03H25.68C24.22,46.58,22.9,45.55,21.75,44.34 M46.36,41.44
		c-4.59-3.55-4.06-10.81,0.95-13.86c0.03-0.02,0.06-0.02,0.09-0.02c0.14,0,0.26,0.12,0.26,0.26c0,0.04-0.01,0.08-0.01,0.08
		C45.1,34.11,50.76,34.04,46.36,41.44 M155.08,42.28v-7.8l-5.91-10.92h3.91l2.23,4.81c0.63,1.38,1.11,2.44,1.64,3.72
		c0.5-1.19,1.02-2.36,1.66-3.72l2.25-4.81h3.86L158.5,34.4v7.89H155.08z M138.52,26.43h-5.34v-2.86h14.14v2.86h-5.38v15.86h-3.42
		V26.43z M121.9,32.09h2.02c2.31,0,3.73-1.22,3.73-3.08c0-2.03-1.42-3-3.64-3c-1.08,0-1.78,0.08-2.11,0.17V32.09z M118.51,23.85
		c1.3-0.25,3.19-0.41,5.17-0.41c2.69,0,4.5,0.44,5.78,1.49c1.02,0.87,1.61,2.17,1.61,3.78c0,2.42-1.64,4.06-3.42,4.67
		c1.36,0.58,2.17,1.89,2.6,3.7c0.61,2.33,1.11,4.5,1.47,5.22h-3.49c-0.28-0.55-0.75-2.08-1.25-4.41c-0.55-2.45-1.41-3.22-3.36-3.28
		h-1.72v7.69h-3.39V23.85z M114.17,33.98h-7.05v5.5h7.88v2.8h-11.3V23.57h10.89v2.8h-7.47v4.83h7.05V33.98z M90.99,39.81
		c0.45,0.08,1.03,0.08,1.81,0.08c2.19,0,4.16-0.81,4.16-3.11c0-2.19-1.92-3.08-4.28-3.08h-1.69V39.81z M90.99,31.24h1.75
		c2.39,0,3.69-1.12,3.69-2.7c0-1.78-1.33-2.58-3.49-2.58c-1,0-1.59,0.05-1.95,0.13V31.24z M87.61,23.85
		c1.08-0.22,3.06-0.41,4.99-0.41c2.5,0,4.08,0.33,5.33,1.19c1.17,0.7,1.94,1.92,1.94,3.52c0,1.73-1.08,3.28-3.11,4.03
		c1.97,0.58,3.78,2.14,3.78,4.69c0,1.67-0.73,2.97-1.78,3.89c-1.33,1.13-3.53,1.72-6.97,1.72c-1.89,0-3.31-0.13-4.19-0.24V23.85z
		 M83.49,42.28h-3.42V23.57h3.42V42.28z M65.51,23.57h3.42v15.86h7.69v2.86H65.51V23.57z"/>
</g>
</svg>
